<mxfile host="app.diagrams.net" modified="2023-06-07T10:05:18.719Z" agent="Mozilla/5.0 (Windows NT 10.0; Win64; x64) AppleWebKit/537.36 (KHTML, like Gecko) Chrome/114.0.0.0 Safari/537.36" etag="UP-uCCV-SvBngDHPHfPS" version="21.3.6" type="device">
  <diagram name="Pagina-1" id="Tz6Z_vcTP6DrAK1QKzx_">
    <mxGraphModel dx="1120" dy="484" grid="1" gridSize="10" guides="1" tooltips="1" connect="1" arrows="1" fold="1" page="1" pageScale="1" pageWidth="827" pageHeight="1169" math="0" shadow="0">
      <root>
        <mxCell id="0" />
        <mxCell id="1" parent="0" />
        <mxCell id="POOXPRrQ2YqsytIRpgVz-2" value="begin gevecht" style="rounded=0;whiteSpace=wrap;html=1;" vertex="1" parent="1">
          <mxGeometry x="350" y="160" width="120" height="60" as="geometry" />
        </mxCell>
        <mxCell id="POOXPRrQ2YqsytIRpgVz-3" value="" style="endArrow=classic;html=1;rounded=0;entryX=0.5;entryY=0;entryDx=0;entryDy=0;exitX=0.5;exitY=1;exitDx=0;exitDy=0;" edge="1" parent="1" target="POOXPRrQ2YqsytIRpgVz-2">
          <mxGeometry width="50" height="50" relative="1" as="geometry">
            <mxPoint x="410" y="110" as="sourcePoint" />
            <mxPoint x="580" y="90" as="targetPoint" />
          </mxGeometry>
        </mxCell>
        <mxCell id="POOXPRrQ2YqsytIRpgVz-4" value="geklikt op button fight" style="rounded=0;whiteSpace=wrap;html=1;" vertex="1" parent="1">
          <mxGeometry x="350" y="260" width="120" height="60" as="geometry" />
        </mxCell>
        <mxCell id="POOXPRrQ2YqsytIRpgVz-5" value="" style="endArrow=classic;html=1;rounded=0;entryX=0.5;entryY=0;entryDx=0;entryDy=0;exitX=0.5;exitY=1;exitDx=0;exitDy=0;" edge="1" parent="1" source="POOXPRrQ2YqsytIRpgVz-2" target="POOXPRrQ2YqsytIRpgVz-4">
          <mxGeometry width="50" height="50" relative="1" as="geometry">
            <mxPoint x="600" y="220" as="sourcePoint" />
            <mxPoint x="650" y="170" as="targetPoint" />
          </mxGeometry>
        </mxCell>
        <mxCell id="POOXPRrQ2YqsytIRpgVz-9" value="" style="endArrow=classic;html=1;rounded=0;entryX=0.5;entryY=0;entryDx=0;entryDy=0;exitX=1;exitY=0.5;exitDx=0;exitDy=0;" edge="1" parent="1" source="POOXPRrQ2YqsytIRpgVz-4" target="POOXPRrQ2YqsytIRpgVz-18">
          <mxGeometry width="50" height="50" relative="1" as="geometry">
            <mxPoint x="420" y="400" as="sourcePoint" />
            <mxPoint x="510" y="360" as="targetPoint" />
          </mxGeometry>
        </mxCell>
        <mxCell id="POOXPRrQ2YqsytIRpgVz-12" value="" style="endArrow=classic;html=1;rounded=0;entryX=0.5;entryY=0;entryDx=0;entryDy=0;exitX=0;exitY=0.5;exitDx=0;exitDy=0;" edge="1" parent="1" source="POOXPRrQ2YqsytIRpgVz-4" target="POOXPRrQ2YqsytIRpgVz-17">
          <mxGeometry width="50" height="50" relative="1" as="geometry">
            <mxPoint x="420" y="400" as="sourcePoint" />
            <mxPoint x="310" y="360" as="targetPoint" />
          </mxGeometry>
        </mxCell>
        <mxCell id="POOXPRrQ2YqsytIRpgVz-13" value="hp bar wild pokemon omlaag" style="rounded=0;whiteSpace=wrap;html=1;" vertex="1" parent="1">
          <mxGeometry x="250" y="480" width="120" height="60" as="geometry" />
        </mxCell>
        <mxCell id="POOXPRrQ2YqsytIRpgVz-14" value="" style="endArrow=classic;html=1;rounded=0;entryX=0.5;entryY=0;entryDx=0;entryDy=0;" edge="1" parent="1" target="POOXPRrQ2YqsytIRpgVz-13">
          <mxGeometry width="50" height="50" relative="1" as="geometry">
            <mxPoint x="310" y="440" as="sourcePoint" />
            <mxPoint x="470" y="450" as="targetPoint" />
          </mxGeometry>
        </mxCell>
        <mxCell id="POOXPRrQ2YqsytIRpgVz-15" value="wild pokemon defense met 1 omlaag" style="rounded=0;whiteSpace=wrap;html=1;" vertex="1" parent="1">
          <mxGeometry x="450" y="480" width="120" height="60" as="geometry" />
        </mxCell>
        <mxCell id="POOXPRrQ2YqsytIRpgVz-17" value="input knop = pound" style="rounded=0;whiteSpace=wrap;html=1;" vertex="1" parent="1">
          <mxGeometry x="250" y="380" width="120" height="60" as="geometry" />
        </mxCell>
        <mxCell id="POOXPRrQ2YqsytIRpgVz-18" value="input knop = leer" style="rounded=0;whiteSpace=wrap;html=1;" vertex="1" parent="1">
          <mxGeometry x="450" y="380" width="120" height="60" as="geometry" />
        </mxCell>
        <mxCell id="POOXPRrQ2YqsytIRpgVz-19" value="check of defense van wild pokemon niet meer dan 6 keer omlaag is gegaan" style="rhombus;whiteSpace=wrap;html=1;" vertex="1" parent="1">
          <mxGeometry x="630" y="355" width="190" height="110" as="geometry" />
        </mxCell>
        <mxCell id="POOXPRrQ2YqsytIRpgVz-20" value="" style="endArrow=classic;html=1;rounded=0;entryX=0;entryY=0.5;entryDx=0;entryDy=0;exitX=1;exitY=0.5;exitDx=0;exitDy=0;" edge="1" parent="1" source="POOXPRrQ2YqsytIRpgVz-18" target="POOXPRrQ2YqsytIRpgVz-19">
          <mxGeometry width="50" height="50" relative="1" as="geometry">
            <mxPoint x="570" y="430" as="sourcePoint" />
            <mxPoint x="620" y="380" as="targetPoint" />
          </mxGeometry>
        </mxCell>
        <mxCell id="POOXPRrQ2YqsytIRpgVz-21" value="" style="endArrow=classic;html=1;rounded=0;exitX=0;exitY=1;exitDx=0;exitDy=0;entryX=1;entryY=0.5;entryDx=0;entryDy=0;" edge="1" parent="1" source="POOXPRrQ2YqsytIRpgVz-19" target="POOXPRrQ2YqsytIRpgVz-15">
          <mxGeometry width="50" height="50" relative="1" as="geometry">
            <mxPoint x="620" y="510" as="sourcePoint" />
            <mxPoint x="600" y="600" as="targetPoint" />
          </mxGeometry>
        </mxCell>
        <mxCell id="POOXPRrQ2YqsytIRpgVz-22" value="print move failed" style="rounded=0;whiteSpace=wrap;html=1;" vertex="1" parent="1">
          <mxGeometry x="770" y="480" width="120" height="60" as="geometry" />
        </mxCell>
        <mxCell id="POOXPRrQ2YqsytIRpgVz-25" value="" style="endArrow=classic;html=1;rounded=0;entryX=0.5;entryY=0;entryDx=0;entryDy=0;exitX=0.737;exitY=0.773;exitDx=0;exitDy=0;exitPerimeter=0;" edge="1" parent="1" source="POOXPRrQ2YqsytIRpgVz-19" target="POOXPRrQ2YqsytIRpgVz-22">
          <mxGeometry width="50" height="50" relative="1" as="geometry">
            <mxPoint x="620" y="320" as="sourcePoint" />
            <mxPoint x="950" y="310" as="targetPoint" />
          </mxGeometry>
        </mxCell>
        <mxCell id="POOXPRrQ2YqsytIRpgVz-26" value="wild pokemon&#39;s turn" style="rounded=0;whiteSpace=wrap;html=1;" vertex="1" parent="1">
          <mxGeometry x="380" y="660" width="120" height="60" as="geometry" />
        </mxCell>
        <mxCell id="POOXPRrQ2YqsytIRpgVz-28" value="wild pokemon hp &amp;lt; 0&amp;nbsp;" style="rhombus;whiteSpace=wrap;html=1;" vertex="1" parent="1">
          <mxGeometry x="300" y="570" width="80" height="80" as="geometry" />
        </mxCell>
        <mxCell id="POOXPRrQ2YqsytIRpgVz-29" value="battle is over" style="rounded=0;whiteSpace=wrap;html=1;" vertex="1" parent="1">
          <mxGeometry x="70" y="660" width="120" height="60" as="geometry" />
        </mxCell>
        <mxCell id="POOXPRrQ2YqsytIRpgVz-32" value="" style="endArrow=classic;html=1;rounded=0;entryX=0.5;entryY=0;entryDx=0;entryDy=0;exitX=0.5;exitY=1;exitDx=0;exitDy=0;" edge="1" parent="1" source="POOXPRrQ2YqsytIRpgVz-15" target="POOXPRrQ2YqsytIRpgVz-26">
          <mxGeometry width="50" height="50" relative="1" as="geometry">
            <mxPoint x="580" y="600" as="sourcePoint" />
            <mxPoint x="630" y="550" as="targetPoint" />
          </mxGeometry>
        </mxCell>
        <mxCell id="POOXPRrQ2YqsytIRpgVz-33" value="" style="endArrow=classic;html=1;rounded=0;entryX=0.5;entryY=0;entryDx=0;entryDy=0;exitX=0.5;exitY=1;exitDx=0;exitDy=0;" edge="1" parent="1" source="POOXPRrQ2YqsytIRpgVz-22" target="POOXPRrQ2YqsytIRpgVz-26">
          <mxGeometry width="50" height="50" relative="1" as="geometry">
            <mxPoint x="690" y="590" as="sourcePoint" />
            <mxPoint x="740" y="540" as="targetPoint" />
          </mxGeometry>
        </mxCell>
        <mxCell id="POOXPRrQ2YqsytIRpgVz-34" value="wild pokemon used scratch" style="rounded=0;whiteSpace=wrap;html=1;" vertex="1" parent="1">
          <mxGeometry x="220" y="740" width="120" height="60" as="geometry" />
        </mxCell>
        <mxCell id="POOXPRrQ2YqsytIRpgVz-35" value="wild pokemon used tail whip" style="rounded=0;whiteSpace=wrap;html=1;" vertex="1" parent="1">
          <mxGeometry x="420" y="750" width="120" height="60" as="geometry" />
        </mxCell>
        <mxCell id="POOXPRrQ2YqsytIRpgVz-36" value="check of defense van jouw pokemon niet meer dan 6 keer omlaag is gegaan" style="rhombus;whiteSpace=wrap;html=1;" vertex="1" parent="1">
          <mxGeometry x="660" y="725" width="190" height="110" as="geometry" />
        </mxCell>
        <mxCell id="POOXPRrQ2YqsytIRpgVz-37" value="" style="endArrow=classic;html=1;rounded=0;entryX=0;entryY=0.5;entryDx=0;entryDy=0;exitX=1;exitY=0.5;exitDx=0;exitDy=0;" edge="1" parent="1" source="POOXPRrQ2YqsytIRpgVz-35" target="POOXPRrQ2YqsytIRpgVz-36">
          <mxGeometry width="50" height="50" relative="1" as="geometry">
            <mxPoint x="580" y="719.5" as="sourcePoint" />
            <mxPoint x="610" y="719.5" as="targetPoint" />
            <Array as="points" />
          </mxGeometry>
        </mxCell>
        <mxCell id="POOXPRrQ2YqsytIRpgVz-38" value="" style="endArrow=classic;html=1;rounded=0;entryX=0.5;entryY=0;entryDx=0;entryDy=0;exitX=0.5;exitY=1;exitDx=0;exitDy=0;" edge="1" parent="1" source="POOXPRrQ2YqsytIRpgVz-26" target="POOXPRrQ2YqsytIRpgVz-35">
          <mxGeometry width="50" height="50" relative="1" as="geometry">
            <mxPoint x="385" y="700" as="sourcePoint" />
            <mxPoint x="435" y="650" as="targetPoint" />
          </mxGeometry>
        </mxCell>
        <mxCell id="POOXPRrQ2YqsytIRpgVz-39" value="" style="endArrow=classic;html=1;rounded=0;entryX=0.5;entryY=0;entryDx=0;entryDy=0;exitX=0.5;exitY=1;exitDx=0;exitDy=0;" edge="1" parent="1" source="POOXPRrQ2YqsytIRpgVz-26" target="POOXPRrQ2YqsytIRpgVz-34">
          <mxGeometry width="50" height="50" relative="1" as="geometry">
            <mxPoint x="385" y="745" as="sourcePoint" />
            <mxPoint x="435" y="695" as="targetPoint" />
          </mxGeometry>
        </mxCell>
        <mxCell id="POOXPRrQ2YqsytIRpgVz-40" value="print move failed" style="rounded=0;whiteSpace=wrap;html=1;" vertex="1" parent="1">
          <mxGeometry x="680" y="935" width="120" height="60" as="geometry" />
        </mxCell>
        <mxCell id="POOXPRrQ2YqsytIRpgVz-41" value="" style="endArrow=classic;html=1;rounded=0;entryX=0.558;entryY=-0.067;entryDx=0;entryDy=0;entryPerimeter=0;exitX=0.5;exitY=1;exitDx=0;exitDy=0;" edge="1" parent="1" source="POOXPRrQ2YqsytIRpgVz-36" target="POOXPRrQ2YqsytIRpgVz-40">
          <mxGeometry width="50" height="50" relative="1" as="geometry">
            <mxPoint x="420" y="810" as="sourcePoint" />
            <mxPoint x="470" y="760" as="targetPoint" />
          </mxGeometry>
        </mxCell>
        <mxCell id="POOXPRrQ2YqsytIRpgVz-42" value="hp bar jouw pokemon omlaag&amp;nbsp;" style="rounded=0;whiteSpace=wrap;html=1;" vertex="1" parent="1">
          <mxGeometry x="240" y="965" width="120" height="60" as="geometry" />
        </mxCell>
        <mxCell id="POOXPRrQ2YqsytIRpgVz-43" value="jouw pokemon defense met 1 omlaag" style="rounded=0;whiteSpace=wrap;html=1;" vertex="1" parent="1">
          <mxGeometry x="440" y="905" width="120" height="60" as="geometry" />
        </mxCell>
        <mxCell id="POOXPRrQ2YqsytIRpgVz-44" value="" style="endArrow=classic;html=1;rounded=0;entryX=0.5;entryY=0;entryDx=0;entryDy=0;exitX=0;exitY=1;exitDx=0;exitDy=0;" edge="1" parent="1" source="POOXPRrQ2YqsytIRpgVz-36" target="POOXPRrQ2YqsytIRpgVz-43">
          <mxGeometry width="50" height="50" relative="1" as="geometry">
            <mxPoint x="405" y="780" as="sourcePoint" />
            <mxPoint x="455" y="730" as="targetPoint" />
          </mxGeometry>
        </mxCell>
        <mxCell id="POOXPRrQ2YqsytIRpgVz-46" value="your pokemon hp &amp;lt; 0" style="rhombus;whiteSpace=wrap;html=1;" vertex="1" parent="1">
          <mxGeometry x="240" y="830" width="80" height="80" as="geometry" />
        </mxCell>
        <mxCell id="POOXPRrQ2YqsytIRpgVz-49" value="battle is over&amp;nbsp;" style="rounded=0;whiteSpace=wrap;html=1;" vertex="1" parent="1">
          <mxGeometry x="80" y="950" width="120" height="60" as="geometry" />
        </mxCell>
        <mxCell id="POOXPRrQ2YqsytIRpgVz-51" value="begin gevecht opnieuw" style="text;html=1;strokeColor=none;fillColor=none;align=center;verticalAlign=middle;whiteSpace=wrap;rounded=0;" vertex="1" parent="1">
          <mxGeometry x="360" y="1030" width="60" height="30" as="geometry" />
        </mxCell>
        <mxCell id="POOXPRrQ2YqsytIRpgVz-52" value="" style="curved=1;endArrow=classic;html=1;rounded=0;exitX=0.5;exitY=1;exitDx=0;exitDy=0;entryX=1;entryY=0.5;entryDx=0;entryDy=0;" edge="1" parent="1" source="POOXPRrQ2YqsytIRpgVz-42" target="POOXPRrQ2YqsytIRpgVz-4">
          <mxGeometry width="50" height="50" relative="1" as="geometry">
            <mxPoint x="630" y="920" as="sourcePoint" />
            <mxPoint x="680" y="870" as="targetPoint" />
            <Array as="points">
              <mxPoint x="400" y="1090" />
              <mxPoint x="680" y="920" />
              <mxPoint x="630" y="870" />
              <mxPoint x="650" y="590" />
              <mxPoint x="640" y="420" />
              <mxPoint x="510" y="330" />
            </Array>
          </mxGeometry>
        </mxCell>
        <mxCell id="POOXPRrQ2YqsytIRpgVz-59" value="start" style="rounded=1;whiteSpace=wrap;html=1;" vertex="1" parent="1">
          <mxGeometry x="350" y="50" width="120" height="60" as="geometry" />
        </mxCell>
        <mxCell id="POOXPRrQ2YqsytIRpgVz-62" value="" style="endArrow=classic;html=1;rounded=0;entryX=0.5;entryY=0;entryDx=0;entryDy=0;exitX=0.5;exitY=1;exitDx=0;exitDy=0;" edge="1" parent="1" source="POOXPRrQ2YqsytIRpgVz-13" target="POOXPRrQ2YqsytIRpgVz-28">
          <mxGeometry width="50" height="50" relative="1" as="geometry">
            <mxPoint x="70" y="584.5" as="sourcePoint" />
            <mxPoint x="170" y="524.5" as="targetPoint" />
            <Array as="points" />
          </mxGeometry>
        </mxCell>
        <mxCell id="POOXPRrQ2YqsytIRpgVz-63" value="" style="endArrow=classic;html=1;rounded=0;entryX=0.5;entryY=0;entryDx=0;entryDy=0;exitX=0.125;exitY=0.625;exitDx=0;exitDy=0;exitPerimeter=0;" edge="1" parent="1" source="POOXPRrQ2YqsytIRpgVz-28" target="POOXPRrQ2YqsytIRpgVz-29">
          <mxGeometry width="50" height="50" relative="1" as="geometry">
            <mxPoint x="80" y="600" as="sourcePoint" />
            <mxPoint x="130" y="550" as="targetPoint" />
          </mxGeometry>
        </mxCell>
        <mxCell id="POOXPRrQ2YqsytIRpgVz-64" value="ja" style="text;html=1;strokeColor=none;fillColor=none;align=center;verticalAlign=middle;whiteSpace=wrap;rounded=0;" vertex="1" parent="1">
          <mxGeometry x="200" y="620" width="60" height="30" as="geometry" />
        </mxCell>
        <mxCell id="POOXPRrQ2YqsytIRpgVz-65" value="" style="endArrow=classic;html=1;rounded=0;entryX=0.25;entryY=0;entryDx=0;entryDy=0;" edge="1" parent="1" source="POOXPRrQ2YqsytIRpgVz-28" target="POOXPRrQ2YqsytIRpgVz-26">
          <mxGeometry width="50" height="50" relative="1" as="geometry">
            <mxPoint x="364" y="635" as="sourcePoint" />
            <mxPoint x="414" y="585" as="targetPoint" />
          </mxGeometry>
        </mxCell>
        <mxCell id="POOXPRrQ2YqsytIRpgVz-66" value="nee" style="text;html=1;strokeColor=none;fillColor=none;align=center;verticalAlign=middle;whiteSpace=wrap;rounded=0;" vertex="1" parent="1">
          <mxGeometry x="360" y="620" width="60" height="30" as="geometry" />
        </mxCell>
        <mxCell id="POOXPRrQ2YqsytIRpgVz-67" value="" style="endArrow=classic;html=1;rounded=0;exitX=0.433;exitY=1;exitDx=0;exitDy=0;exitPerimeter=0;entryX=0.588;entryY=0.088;entryDx=0;entryDy=0;entryPerimeter=0;" edge="1" parent="1" source="POOXPRrQ2YqsytIRpgVz-34" target="POOXPRrQ2YqsytIRpgVz-46">
          <mxGeometry width="50" height="50" relative="1" as="geometry">
            <mxPoint x="260" y="850" as="sourcePoint" />
            <mxPoint x="290" y="820" as="targetPoint" />
            <Array as="points">
              <mxPoint x="290" y="820" />
              <mxPoint x="280" y="820" />
            </Array>
          </mxGeometry>
        </mxCell>
        <mxCell id="POOXPRrQ2YqsytIRpgVz-69" value="" style="endArrow=classic;html=1;rounded=0;entryX=0.558;entryY=0.017;entryDx=0;entryDy=0;entryPerimeter=0;exitX=0;exitY=0.5;exitDx=0;exitDy=0;" edge="1" parent="1" source="POOXPRrQ2YqsytIRpgVz-46" target="POOXPRrQ2YqsytIRpgVz-49">
          <mxGeometry width="50" height="50" relative="1" as="geometry">
            <mxPoint x="60" y="840" as="sourcePoint" />
            <mxPoint x="110" y="790" as="targetPoint" />
          </mxGeometry>
        </mxCell>
        <mxCell id="POOXPRrQ2YqsytIRpgVz-70" value="ja" style="text;html=1;strokeColor=none;fillColor=none;align=center;verticalAlign=middle;whiteSpace=wrap;rounded=0;" vertex="1" parent="1">
          <mxGeometry x="170" y="870" width="60" height="30" as="geometry" />
        </mxCell>
        <mxCell id="POOXPRrQ2YqsytIRpgVz-71" value="" style="endArrow=classic;html=1;rounded=0;exitX=0.5;exitY=1;exitDx=0;exitDy=0;entryX=0.5;entryY=0;entryDx=0;entryDy=0;" edge="1" parent="1" source="POOXPRrQ2YqsytIRpgVz-46" target="POOXPRrQ2YqsytIRpgVz-42">
          <mxGeometry width="50" height="50" relative="1" as="geometry">
            <mxPoint x="330" y="920" as="sourcePoint" />
            <mxPoint x="380" y="870" as="targetPoint" />
          </mxGeometry>
        </mxCell>
        <mxCell id="POOXPRrQ2YqsytIRpgVz-72" value="nee" style="text;html=1;strokeColor=none;fillColor=none;align=center;verticalAlign=middle;whiteSpace=wrap;rounded=0;" vertex="1" parent="1">
          <mxGeometry x="260" y="935" width="60" height="30" as="geometry" />
        </mxCell>
        <mxCell id="POOXPRrQ2YqsytIRpgVz-76" value="" style="curved=1;endArrow=classic;html=1;rounded=0;exitX=1;exitY=0.5;exitDx=0;exitDy=0;entryX=1;entryY=0.5;entryDx=0;entryDy=0;" edge="1" parent="1" source="POOXPRrQ2YqsytIRpgVz-43" target="POOXPRrQ2YqsytIRpgVz-4">
          <mxGeometry width="50" height="50" relative="1" as="geometry">
            <mxPoint x="490" y="760" as="sourcePoint" />
            <mxPoint x="540" y="710" as="targetPoint" />
            <Array as="points">
              <mxPoint x="650" y="860" />
              <mxPoint x="540" y="760" />
              <mxPoint x="670" y="770" />
              <mxPoint x="490" y="710" />
              <mxPoint x="790" y="530" />
            </Array>
          </mxGeometry>
        </mxCell>
        <mxCell id="POOXPRrQ2YqsytIRpgVz-77" value="begin gevecht opnieuw" style="text;html=1;strokeColor=none;fillColor=none;align=center;verticalAlign=middle;whiteSpace=wrap;rounded=0;" vertex="1" parent="1">
          <mxGeometry x="550" y="710" width="60" height="30" as="geometry" />
        </mxCell>
        <mxCell id="POOXPRrQ2YqsytIRpgVz-78" value="ja" style="text;html=1;strokeColor=none;fillColor=none;align=center;verticalAlign=middle;whiteSpace=wrap;rounded=0;" vertex="1" parent="1">
          <mxGeometry x="580" y="450" width="60" height="30" as="geometry" />
        </mxCell>
        <mxCell id="POOXPRrQ2YqsytIRpgVz-79" value="nee" style="text;html=1;strokeColor=none;fillColor=none;align=center;verticalAlign=middle;whiteSpace=wrap;rounded=0;" vertex="1" parent="1">
          <mxGeometry x="790" y="450" width="60" height="30" as="geometry" />
        </mxCell>
        <mxCell id="POOXPRrQ2YqsytIRpgVz-80" value="ja" style="text;html=1;strokeColor=none;fillColor=none;align=center;verticalAlign=middle;whiteSpace=wrap;rounded=0;" vertex="1" parent="1">
          <mxGeometry x="540" y="875" width="60" height="30" as="geometry" />
        </mxCell>
        <mxCell id="POOXPRrQ2YqsytIRpgVz-81" value="nee" style="text;html=1;strokeColor=none;fillColor=none;align=center;verticalAlign=middle;whiteSpace=wrap;rounded=0;" vertex="1" parent="1">
          <mxGeometry x="730" y="905" width="60" height="30" as="geometry" />
        </mxCell>
      </root>
    </mxGraphModel>
  </diagram>
</mxfile>
